<?xml version="1.0"?>
<svg xmlns="http://www.w3.org/2000/svg" xmlns:xlink="http://www.w3.org/1999/xlink" xmlns:svgjs="http://svgjs.com/svgjs" version="1.1" width="512" height="512" x="0" y="0" viewBox="0 0 512 512" style="enable-background:new 0 0 512 512" xml:space="preserve" class=""><g><g xmlns="http://www.w3.org/2000/svg" id="XMLID_1264_"><g id="XMLID_457_"><path id="XMLID_458_" d="m462 80h-160.873c-5.522 0-10 4.477-10 10s4.478 10 10 10h160.873c16.542 0 30 13.458 30 30v198c0 16.542-13.458 30-30 30h-206c-5.522 0-10 4.477-10 10v29.858l-36.929-36.929c-1.876-1.876-4.419-2.929-7.071-2.929h-152c-16.542 0-30-13.458-30-30v-198c0-16.542 13.458-30 30-30h161.127c5.522 0 10-4.477 10-10s-4.478-10-10-10h-161.127c-27.57 0-50 22.43-50 50v198c0 27.57 22.43 50 50 50h147.857l51.071 51.071c1.913 1.913 4.471 2.929 7.073 2.929 1.288 0 2.588-.249 3.825-.762 3.736-1.548 6.173-5.194 6.173-9.239v-44h196c27.57 0 50-22.43 50-50v-197.999c.001-27.571-22.429-50-49.999-50z" fill="#0045ff" data-original="#000000" style=""/><path id="XMLID_1158_" d="m187.332 199.058c-2.541-1.304-5.409-2.025-8.413-2.025h-32.785l-10.061-31.031c-2.468-7.614-9.499-12.725-17.501-12.725-.008 0-.016 0-.022 0-8.012.01-15.042 5.14-17.493 12.767l-9.965 30.989h-32.677c-8.009 0-15.044 5.12-17.507 12.74-2.464 7.62.244 15.888 6.736 20.576l26.51 19.139-10.134 31.098c-2.48 7.611.205 15.884 6.683 20.588 3.234 2.349 7.022 3.522 10.811 3.522 3.798 0 7.596-1.18 10.834-3.54l26.449-19.271 26.331 19.137c6.478 4.709 15.18 4.702 21.651-.013 6.472-4.716 9.144-12.996 6.647-20.605l-10.142-30.912 24.053-17.441 24.149 17.435-10.134 31.098c-2.48 7.611.205 15.884 6.683 20.588 3.234 2.349 7.022 3.522 10.811 3.522 3.798 0 7.596-1.18 10.834-3.54l26.449-19.271 26.331 19.137c6.477 4.709 15.179 4.702 21.651-.013 6.472-4.716 9.144-12.996 6.647-20.605l-10.142-30.912 24.054-17.44 24.149 17.435-10.134 31.097c-2.48 7.61.204 15.884 6.682 20.588 3.234 2.349 7.023 3.523 10.812 3.523 3.798 0 7.595-1.18 10.834-3.54l26.448-19.27 26.331 19.137c6.478 4.709 15.181 4.702 21.65-.013 6.473-4.716 9.145-12.996 6.648-20.605l-10.142-30.912 26.435-19.167c6.477-4.696 9.169-12.963 6.7-20.572-2.468-7.609-9.501-12.721-17.501-12.721h-32.784l-10.061-31.032c-2.47-7.613-9.5-12.724-17.502-12.724-.007 0-.016 0-.023 0-8.011.01-15.04 5.141-17.491 12.767l-9.966 30.989h-32.677c-3.006 0-5.874.721-8.415 2.025-2.541-1.304-5.409-2.025-8.414-2.025h-32.785l-10.061-31.031c-2.468-7.614-9.499-12.725-17.501-12.725-.008 0-.016 0-.022 0-8.012.01-15.042 5.14-17.493 12.767l-9.965 30.989h-32.677c-3.003.003-5.871.724-8.413 2.028zm-41.692 38.525c-3.519 2.551-4.986 7.083-3.632 11.213l10.871 33.135-28.21-20.503c-3.508-2.55-8.26-2.548-11.768.007l-28.332 20.643 10.86-33.33c1.347-4.132-.13-8.662-3.654-11.206l-28.406-20.509h35.012c4.344 0 8.19-2.804 9.52-6.939l10.678-33.206 10.772 33.229c1.337 4.124 5.178 6.916 9.513 6.916h35.118zm227.407-20.55c4.344 0 8.19-2.804 9.52-6.939l10.679-33.206 10.772 33.229c1.337 4.124 5.178 6.916 9.513 6.916h35.118l-28.343 20.55c-3.519 2.551-4.986 7.083-3.632 11.213l10.871 33.135-28.21-20.503c-3.509-2.55-8.261-2.547-11.768.007l-28.331 20.642 10.86-33.33c1.347-4.132-.13-8.662-3.654-11.206l-28.406-20.509h35.011zm-137.333 0c4.344 0 8.19-2.804 9.52-6.939l10.678-33.206 10.772 33.229c1.337 4.124 5.178 6.916 9.513 6.916h35.118l-28.342 20.55c-3.519 2.551-4.986 7.083-3.632 11.213l10.871 33.135-28.21-20.503c-3.509-2.55-8.261-2.548-11.768.007l-28.332 20.643 10.861-33.33c1.347-4.133-.13-8.662-3.654-11.207l-28.406-20.509h35.011z" fill="#0045ff" data-original="#000000" style=""/><path id="XMLID_1305_" d="m256.13 100c2.63 0 5.21-1.07 7.07-2.93 1.859-1.86 2.93-4.44 2.93-7.07s-1.07-5.21-2.93-7.07-4.44-2.93-7.07-2.93c-2.64 0-5.21 1.07-7.08 2.93-1.86 1.86-2.92 4.44-2.92 7.07s1.06 5.21 2.92 7.07c1.87 1.859 4.45 2.93 7.08 2.93z" fill="#0045ff" data-original="#000000" style=""/></g></g></g></svg>
