<svg width="992" height="682" viewBox="0 0 992 682" fill="none" xmlns="http://www.w3.org/2000/svg">
<path d="M828.121 307.975C826.228 216.27 736.565 139.156 648.121 136.99C626.723 136.465 604.879 138.382 584.121 143.734C575.756 145.891 562.541 155.781 554.214 154.762C548.486 154.061 540.162 139.295 536.403 134.975C522.849 119.398 506.858 104.984 489.121 94.284C411.291 47.3311 313.307 44.2368 236.121 95.054C193.333 123.224 156.253 169.841 143.045 219.975C138.943 235.548 135.314 251.865 134.211 267.975C133.785 274.195 136.484 285.284 133.093 290.697C130.525 294.797 122.31 296.207 118.121 298.233C106.97 303.628 96.2533 309.884 86.1211 317.011C59.1074 336.014 37.6338 362.977 24.1489 392.975C-16.7918 484.051 22.4849 601.454 115.121 643.663C155.613 662.112 195.59 659.975 239.121 659.975H543.121H763.121H823.121C833.058 659.975 844.36 661.46 854.121 659.497C869.355 656.432 887.953 645.705 901.121 637.551C920.296 625.676 938.484 611.247 951.965 592.975C1015.28 507.152 991.904 383.831 899.121 329.964C878.425 317.949 852.295 307.978 828.121 307.975Z" fill="#0077B6"/>
<path d="M338 63.4244C259.101 73.9113 186.038 125.234 158.692 202C152.778 218.602 146.818 236.245 146.039 254C145.633 263.276 148.601 284.311 143.258 291.867C137.995 299.309 121.94 302.016 114 306.309C94.9609 316.601 77.6017 329.68 63.2863 346C-3.8632 422.551 7.45202 542.008 87 605.551C148.162 654.407 228.929 642 302 642H669H787C805.916 642 827.376 644.827 846 641.536C859.936 639.074 873.465 630.616 886 624.244C959.814 586.72 993.166 496.227 965.561 419C956.626 394.005 940.312 372.048 921 354.09C903.916 338.203 881.426 325.221 858.911 318.829C850.263 316.374 840.969 314.082 832 313.171C826.823 312.645 821.184 313.277 817.434 308.856C813.492 304.209 814.484 294.823 813.718 289C812.147 277.047 808.252 264.152 803.576 253C783.75 205.718 745.381 168.896 697 151.692C667.362 141.154 630.783 137.671 600 145.039C587.219 148.097 574.902 152.159 563 157.781C559.131 159.609 552.522 164.789 548.09 162.867C542.038 160.243 537.786 149.984 533.739 145C523.229 132.057 511.867 120.687 499 110.084C456.1 74.7342 393.369 56.0651 338 63.4244Z" fill="#ADE8F4"/>
<path d="M375.186 78.2464C368.757 80.5735 361.352 91.2195 369.773 96.1248C376.531 100.061 388.618 99.7425 396.321 101.723C413.527 106.146 431.241 113.062 446.331 122.581C453.592 127.16 467.048 140.926 476.215 135.92C492.317 127.128 470.433 110.395 463.401 105.755C444.748 93.4473 422.671 84.2096 400.916 79.4417C393.462 77.8082 382.604 75.5616 375.186 78.2464Z" fill="white"/>
<path d="M492.797 137.687C483.089 142.317 494.07 164.787 502.589 160.446C513.023 155.129 502.979 132.83 492.797 137.687Z" fill="#FEFEFE"/>
<path d="M513.531 169.458C507.06 172.545 514.38 187.525 520.059 184.631C527.016 181.086 520.319 166.22 513.531 169.458Z" fill="#FEFEFE"/>
<path d="M691.005 172.36C684.15 174.711 682.272 182.03 687.395 187.267C697.5 194 705.124 199.098 713.001 205.462C728.423 217.921 741.917 232.529 753.422 248.657C758.22 255.382 769.5 270.5 776 272C793.633 266.768 780.994 244.489 774.972 235.657C760.739 214.782 741.5 197.5 722.001 181.851C711 175.5 703 172.36 691.005 172.36Z" fill="white"/>
<path d="M628.907 325.046C590.244 331.132 571.338 370.713 570.911 406.607C570.777 417.857 565.507 447.941 581.907 449.495C602.003 451.399 596.902 424.174 596.907 411.607C596.92 377.708 618.628 341.558 656.907 353.047C683.853 361.134 689.128 397.209 692.479 420.607C694.066 431.692 689.691 451.843 707.907 449.417C716.865 448.224 718.872 440.337 718.906 432.607C718.971 417.974 717.065 403.831 713.794 389.607C704.209 347.919 674.083 317.935 628.907 325.046Z" fill="black"/>
<path d="M335 325.439C296.337 331.525 277.431 371.106 277.004 407C276.87 418.25 271.6 448.334 288 449.888C308.096 451.792 302.995 424.567 303 412C303.013 378.101 324.721 341.951 363 353.44C389.946 361.527 395.221 397.602 398.572 421C400.159 432.085 395.784 452.236 414 449.81C422.958 448.617 424.965 440.73 424.999 433C425.064 418.367 423.158 404.224 419.887 390C410.302 348.312 380.176 318.328 335 325.439Z" fill="black"/>
<path d="M303.819 477.84C286.421 479.384 268.237 478.86 252.72 485.482C247.42 487.745 239.897 491.648 241.135 496.512C243.039 503.992 258.148 508.182 267.749 509.432C291.839 512.569 316.025 515.326 340.891 513.316C355.867 512.104 372.929 510.122 385.978 504.755C392.457 502.09 398.829 497.172 394.677 491.775C390.878 486.837 381.163 484.618 373.955 482.739C353.085 477.299 325.969 475.875 303.819 477.84Z" fill="#FAE1DD"/>
<path d="M666.999 477.793C650.476 479.27 633.547 479.813 618.885 486.012C611.141 489.285 605.52 494.834 611.52 500.704C618.476 507.509 632.607 510.037 643.944 511.137C667.702 513.443 692.05 515.324 716.116 512.788C728.714 511.461 745.932 509.184 756.171 503.738C763.058 500.075 765.918 493.764 759.109 489.233C750.808 483.71 738.175 481.585 727.231 480.066C707.949 477.392 686.732 476.029 666.999 477.793Z" fill="#FAE1DD"/>
<path d="M437.73 500.972C421.679 504.489 434.824 528.823 439 538.5C449.319 562.412 471.49 572.252 495.837 566.493C517.194 561.441 527.335 544.702 531.5 524C533.35 514.807 539.966 502.071 526.729 500.598C510.904 498.836 512.138 511.27 509.284 522.489C505.804 536.164 493.322 550.488 477.729 546.959C467.94 544.743 460.108 534.855 457.628 525.485C454.49 513.629 455.173 497.15 437.73 500.972Z" fill="black"/>
</svg>
